<svg width="1280" height="362" viewBox="0 0 1280 362" fill="none" xmlns="http://www.w3.org/2000/svg">
<path d="M356.5 1.39999C345.9 4.39999 346.4 4 345.7 12.5C345.3 16.7 344.8 20.5 344.5 21C343.9 22 319.9 31.5 285.5 44.4C240.7 61.1 180.3 85.9 168.2 92.7C160.4 97 148.9 101.8 143.2 103.1C140.9 103.6 133.4 104.5 126.7 105C120 105.6 110 106.9 104.5 108C89.1 111.1 70.5 112.9 48.2 113.7L27.9 114.3L23.6 120.9C17.7 130 17.6 130.4 21 133.9C24.7 137.6 24.8 140.4 21.3 148.9C18.8 155.1 18.6 156.7 18.2 174.5L17.8 193.5L14 196.7C4.89998 204.5 0.699976 217.6 0.599976 238.5C0.599976 257.9 1.69998 278.1 3.19998 286.7C4.49998 293.8 4.59998 294.1 10.4 298.9C17.3 304.7 23.4 311.8 26.2 317.3C32.6 329.9 79.6 338.4 164.6 342.3L173.8 342.7L173.2 330.8C172.6 316.6 174 305.2 178.1 292.5C189.3 257.3 217.5 230.3 253.7 220.3C262.7 217.7 264.9 217.5 281.5 217.5C298 217.5 300.3 217.7 309.3 220.2C329.4 225.8 345.4 235.4 359.7 250.4C373.7 264.9 381.9 279.7 387.1 299.6C389.2 307.5 389.5 310.5 389.4 327.5C389.3 340.2 388.8 348.9 387.8 353.8L386.3 361.1L686.9 360.4C852.2 360 987.6 359.6 987.8 359.5C987.9 359.4 987 355.8 985.8 351.4C983.9 344.7 983.6 340.9 983.6 325.5C983.5 308.9 983.7 306.8 986.3 297.6C998 255.5 1033 224 1074.8 217.9C1086.7 216.2 1107.3 217.2 1118 220C1141.9 226.3 1163.3 240.5 1178.1 259.9C1185.1 269.1 1193.5 286.6 1196.6 298.5C1199 307.3 1199.3 310.4 1199.3 324.5C1199.4 336.1 1198.9 342.6 1197.7 347.9C1196.7 352 1196.1 355.4 1196.2 355.5C1196.4 355.6 1202.4 355.3 1209.5 354.9C1236.1 353.3 1255.3 350.4 1262 347C1266.8 344.6 1271.7 338.9 1274.7 332.4L1277.1 327.2L1275.5 311.5C1274 296.3 1274 295.2 1275.9 283.1C1282.2 244.3 1280.9 215.1 1272.4 202.9C1259 183.6 1219.8 169.3 1129.5 151C1055.8 136.1 997.3 130.1 926.2 130C903.4 130 903.6 130 891.5 121.5C872.8 108.4 787 60.8 744.4 40C706.1 21.3 665.6 11.9 600.5 6.79999C579.7 5.10001 489.9 5.20001 460.5 6.79999C448.4 7.5 429.1 8.70001 417.5 9.5C387.3 11.7 388.9 11.7 383.4 8.5C369.4 0.399994 364.7 -0.899994 356.5 1.39999ZM545 34.7C545.6 38.4 548.8 58.5 552.1 79.3C555.3 100.2 558.7 121.5 559.6 126.7C560.5 131.9 561.1 136.3 560.9 136.4C559.8 137.3 391 133.5 365.8 132C345.2 130.7 324.1 128.4 317.3 126.6C307.5 124 297.5 114.7 292.4 103.5C288.9 96 288.8 86.3 291.9 78C293.6 73.5 294.9 71.9 298.7 69.4C307 64 312.2 61.4 324 56.7C358.1 43.1 409.8 33.7 470 30C496.9 28.4 497 28.4 521.1 28.2L543.8 28L545 34.7ZM608 30C634.4 31.8 685.7 41 710.9 48.6C729.5 54.2 755.4 67.4 786.5 87.3C807.6 100.7 813.9 105.4 811.5 105.8C804 107 798.2 110.8 795.3 116.4C793.4 119.9 793.2 130 794.9 134.3L796 137L705.3 136.8L614.7 136.5L608.8 120.5C597.8 90.3 579 32.7 579 28.9C579 28.3 588.5 28.7 608 30Z" fill="black"/>
</svg>
