<svg width="208" height="209" viewBox="0 0 208 209" fill="none" xmlns="http://www.w3.org/2000/svg">
<path d="M85.606 1.42308C63.306 5.42308 44.606 15.5231 28.806 32.0231C15.606 45.8231 7.50604 60.3231 2.60604 78.7231C0.406036 87.0231 0.00603591 90.6231 0.00603591 103.423C-0.0939641 120.323 1.00604 127.023 6.50604 141.623C15.206 164.623 33.606 185.223 55.806 196.723C64.306 201.123 73.606 204.523 82.906 206.523C93.606 208.823 114.106 208.823 124.806 206.423C164.006 198.023 194.706 168.923 205.006 130.323C207.306 121.723 207.606 118.323 207.706 104.923C207.806 89.1231 207.206 85.0231 203.106 71.9231C193.306 40.9231 167.606 15.2231 136.306 5.02309C121.306 0.0230865 100.906 -1.37692 85.606 1.42308ZM120.606 31.5231C145.506 37.1231 166.306 56.2231 174.906 81.4231C177.406 88.6231 177.706 90.9231 177.706 103.423C177.806 118.723 176.206 126.223 170.306 137.923C160.906 156.523 142.006 171.623 121.806 176.523C112.206 178.923 95.006 178.923 85.806 176.523C53.806 168.123 31.406 141.023 29.606 108.423C27.606 72.5231 50.506 41.1231 85.406 31.9231C94.806 29.5231 110.706 29.3231 120.606 31.5231Z" fill="black"/>
<path d="M82.306 44.2231C78.706 45.5231 73.806 47.8231 71.406 49.3231L67.006 52.1231L78.606 63.6231C86.706 71.8231 90.606 75.0231 91.706 74.6231C93.106 74.0231 93.306 71.7231 93.306 57.9231C93.306 39.3231 93.906 40.1231 82.306 44.2231Z" fill="black"/>
<path d="M114.306 57.8231C114.306 71.7231 114.506 74.0231 115.906 74.6231C117.006 75.0231 120.906 71.8231 128.906 63.8231L140.406 52.4231L137.606 50.2231C134.206 47.4231 123.806 43.2231 118.306 42.3231L114.306 41.6231V57.8231Z" fill="black"/>
<path d="M50.506 69.1231C47.706 72.7231 41.306 88.2231 41.306 91.6231C41.306 92.6231 44.706 92.9231 57.806 92.9231C72.906 92.9231 74.306 92.8231 74.306 91.1231C74.306 89.6231 53.706 67.9231 52.206 67.9231C51.806 67.9231 51.106 68.5231 50.506 69.1231Z" fill="black"/>
<path d="M144.506 78.8231C138.306 84.7231 133.306 90.3231 133.306 91.2231C133.306 92.7231 135.006 92.9231 149.806 92.9231C162.906 92.9231 166.306 92.6231 166.306 91.6231C166.306 87.6231 159.406 71.1231 156.806 68.9231C156.106 68.3231 152.006 71.6231 144.506 78.8231Z" fill="black"/>
<path d="M100.406 80.7231C99.206 82.9231 101.506 86.9231 103.806 86.9231C104.606 86.9231 105.906 85.9231 106.706 84.7231C108.706 81.9231 107.106 78.9231 103.806 78.9231C102.506 78.9231 100.906 79.7231 100.406 80.7231Z" fill="black"/>
<path d="M97.206 97.8231C94.006 101.123 93.506 104.523 95.806 108.823C98.706 114.523 106.206 115.223 110.906 110.223C116.206 104.523 111.806 94.9231 103.806 94.9231C101.106 94.9231 99.406 95.7231 97.206 97.8231Z" fill="black"/>
<path d="M79.306 101.423C76.706 104.623 80.606 109.523 84.106 107.323C86.506 105.723 86.806 102.823 84.706 101.223C82.406 99.523 80.806 99.623 79.306 101.423Z" fill="black"/>
<path d="M122.906 101.523C120.906 103.423 120.906 105.323 122.706 106.923C125.006 108.823 128.806 107.723 129.106 105.123C129.806 100.723 125.906 98.4231 122.906 101.523Z" fill="black"/>
<path d="M41.306 116.423C41.306 119.323 45.406 130.423 48.506 135.823L51.606 141.123L63.306 129.423C70.406 122.323 74.906 117.123 74.606 116.323C74.206 115.223 70.606 114.923 57.706 114.923C43.606 114.923 41.306 115.123 41.306 116.423Z" fill="black"/>
<path d="M133.306 116.723C133.306 117.623 138.406 123.523 144.706 129.823L156.106 141.223L159.206 135.823C162.206 130.723 166.306 119.323 166.306 116.323C166.306 115.223 163.206 114.923 149.806 114.923C134.706 114.923 133.306 115.023 133.306 116.723Z" fill="black"/>
<path d="M100.306 123.823C99.606 125.323 99.806 126.223 101.106 127.923C104.306 131.923 109.606 128.323 107.306 123.823C105.906 121.323 101.706 121.323 100.306 123.823Z" fill="black"/>
<path d="M78.506 144.223C72.406 150.423 67.306 155.723 67.306 156.123C67.306 157.923 88.106 166.923 92.206 166.923C92.906 166.923 93.306 161.523 93.306 150.523C93.306 136.523 93.106 134.023 91.706 133.523C90.806 133.223 90.106 132.923 90.006 132.923C89.906 132.923 84.706 138.023 78.506 144.223Z" fill="black"/>
<path d="M115.606 133.623C114.106 134.223 113.706 166.923 115.206 166.923C119.806 166.923 140.306 158.123 140.306 156.123C140.306 155.223 118.006 132.923 117.306 133.023C117.006 133.023 116.206 133.323 115.606 133.623Z" fill="black"/>
</svg>
